<svg width="14" height="14" viewBox="0 0 14 14" fill="none" xmlns="http://www.w3.org/2000/svg">
<g id="input-prefix">
<path id="Union" d="M12.4153 10.9324C12.1206 10.2342 11.6928 9.60006 11.1559 9.06521C10.6207 8.52882 9.98662 8.10115 9.28876 7.80583C9.28251 7.80271 9.27626 7.80115 9.27001 7.79802C10.2434 7.0949 10.8763 5.94958 10.8763 4.65739C10.8763 2.51677 9.14188 0.782394 7.00126 0.782394C4.86063 0.782394 3.12626 2.51677 3.12626 4.65739C3.12626 5.94958 3.75907 7.09489 4.73251 7.79958C4.72626 7.80271 4.72001 7.80427 4.71376 7.80739C4.01376 8.10271 3.38563 8.52615 2.84657 9.06677C2.31018 9.60203 1.88252 10.2361 1.5872 10.934C1.29708 11.6172 1.14061 12.3497 1.12626 13.0918C1.12584 13.1084 1.12877 13.125 1.13486 13.1406C1.14096 13.1561 1.1501 13.1702 1.16175 13.1822C1.1734 13.1941 1.18732 13.2036 1.20269 13.2101C1.21806 13.2166 1.23458 13.2199 1.25126 13.2199H2.18876C2.25751 13.2199 2.3122 13.1652 2.31376 13.098C2.34501 11.8918 2.82938 10.7621 3.68563 9.90583C4.57157 9.0199 5.74814 8.5324 7.00126 8.5324C8.25438 8.5324 9.43095 9.0199 10.3169 9.90583C11.1731 10.7621 11.6575 11.8918 11.6888 13.098C11.6903 13.1668 11.745 13.2199 11.8138 13.2199H12.7513C12.7679 13.2199 12.7845 13.2166 12.7998 13.2101C12.8152 13.2036 12.8291 13.1941 12.8408 13.1822C12.8524 13.1702 12.8616 13.1561 12.8677 13.1406C12.8738 13.125 12.8767 13.1084 12.8763 13.0918C12.8606 12.3449 12.7059 11.6183 12.4153 10.9324ZM7.00126 7.3449C6.28407 7.3449 5.60907 7.06521 5.10126 6.55739C4.59345 6.04958 4.31376 5.37458 4.31376 4.65739C4.31376 3.94021 4.59345 3.26521 5.10126 2.75739C5.60907 2.24958 6.28407 1.96989 7.00126 1.96989C7.71845 1.96989 8.39345 2.24958 8.90126 2.75739C9.40907 3.26521 9.68876 3.94021 9.68876 4.65739C9.68876 5.37458 9.40907 6.04958 8.90126 6.55739C8.39345 7.06521 7.71845 7.3449 7.00126 7.3449Z" fill="black" fill-opacity="0.85"/>
</g>
</svg>
